<svg width="536" height="649" viewBox="0 0 536 649" fill="none" xmlns="http://www.w3.org/2000/svg">
<path d="M516.349 389.668C513.729 396.067 508.71 400.51 504.146 404.012C498.519 408.328 492.515 412.149 486.714 415.847C479.263 420.592 471.557 425.497 464.467 431.55C459.295 435.968 454.72 440.915 450.894 446.199C456.788 427.8 463.752 411.691 472.026 397.241C482.918 378.228 494.241 368.453 505.696 368.169C505.962 368.161 506.226 368.159 506.491 368.165C510.036 368.21 512.81 369.285 514.738 371.36C518.693 375.622 518.664 384.015 516.349 389.668Z" fill="black"/>
<path d="M530.671 493.266C526.201 497.589 520.206 498.807 514.932 499.426C508.429 500.191 501.747 500.294 495.289 500.402C486.997 500.536 478.421 500.671 470.025 502.188C463.899 503.298 458.139 505.218 452.947 507.859C464.315 494.519 475.899 483.844 488.122 475.4C504.21 464.292 517.654 461.771 528.102 467.9C528.344 468.042 528.583 468.187 528.82 468.339C532.009 470.356 534.164 472.874 535.226 475.826C537.4 481.881 534.619 489.449 530.671 493.266Z" fill="black"/>
<path d="M501.226 545.157C497.449 544.578 494.028 541.521 491.182 538.608C487.673 535.017 484.312 530.988 481.061 527.096C476.889 522.098 472.573 516.927 467.852 512.553C464.406 509.363 460.851 506.802 457.318 504.943C467.77 505.252 477.372 507.02 486.489 510.286C498.486 514.588 506.081 521.544 509.072 530.974C509.141 531.192 509.209 531.411 509.272 531.632C510.132 534.583 510.299 537.152 509.765 539.268C508.668 543.607 504.563 545.671 501.226 545.157Z" fill="black"/>
<path d="M415.596 564.005C415.596 564.005 406.526 514.561 460.421 430.5" stroke="black" stroke-width="5.669" stroke-miterlimit="10" stroke-linecap="round"/>
<path d="M415.596 564.003C415.596 564.003 417.16 522.333 475.498 493.942" stroke="black" stroke-width="5.669" stroke-miterlimit="10" stroke-linecap="round"/>
<path d="M456.494 505.941C456.494 505.941 463.316 504.166 481.653 517.887" stroke="black" stroke-width="5.669" stroke-miterlimit="10" stroke-linecap="round"/>
<path d="M507.491 384.28C507.491 387.421 505.536 389.968 503.126 389.967C500.715 389.967 498.761 387.419 498.761 384.278C498.761 381.137 500.716 378.59 503.126 378.591C505.536 378.591 507.491 381.139 507.491 384.28Z" fill="#DCD9D9"/>
<path d="M522.03 483.838C522.029 486.979 520.074 489.526 517.664 489.525C515.253 489.525 513.3 486.977 513.3 483.836C513.3 480.695 515.254 478.148 517.665 478.149C520.075 478.149 522.03 480.697 522.03 483.838Z" fill="#DCD9D9"/>
<path d="M503.839 532.191C503.839 534.808 502.21 536.93 500.201 536.93C498.192 536.93 496.564 534.807 496.564 532.189C496.564 529.57 498.192 527.449 500.202 527.449C502.21 527.45 503.839 529.572 503.839 532.191Z" fill="#DCD9D9"/>
<path d="M143.715 318.406C153.742 336.807 162.232 356.627 168.733 377.856C172.03 388.624 174.855 400.476 172.479 411.649C169.884 423.85 161.433 432.705 152.317 437.083C130.047 447.78 104.33 435.202 87.1901 413.812C70.0496 392.42 59.7375 363.607 50.0125 335.396C42.356 313.184 34.7185 290.609 23.5637 270.918C18.7815 262.476 -6.47891 231.601 1.58603 219.92C12.5461 203.455 52.055 208.451 81.0465 236.513C104.927 259.628 126.568 286.942 143.715 318.406Z" fill="black"/>
<path d="M152.318 437.088C152.318 437.088 114.325 322.548 36.1591 241.705" stroke="#DCD9D9" stroke-width="5.669" stroke-miterlimit="10" stroke-linecap="round"/>
<path d="M129.453 382.397C129.453 382.397 123.618 305.421 84.9625 261.499" stroke="#DCD9D9" stroke-width="5.669" stroke-miterlimit="10" stroke-linecap="round"/>
<path d="M109.206 342.506C109.206 342.506 90.9286 353.077 65.819 314.389" stroke="#DCD9D9" stroke-width="5.669" stroke-miterlimit="10" stroke-linecap="round"/>
<path d="M197.402 548.287L198.993 530.472C197.568 518.755 190.445 514.278 181.507 504.664C169.558 491.812 152.458 483.177 133.357 480.349C114.258 477.519 95.3335 480.819 80.0711 489.64C69.041 496.014 61.4174 496.229 56.481 506.541L55.7354 509.969L51.8349 526.726C51.5985 527.811 51.3933 528.909 51.2238 530.017C48.6603 546.785 54.1634 563.456 66.7197 576.961C78.6679 589.813 95.7678 598.448 114.868 601.278C133.968 604.107 152.893 600.807 168.155 591.986C184.194 582.717 194.438 568.376 197.002 551.609C197.171 550.5 197.303 549.393 197.402 548.287Z" fill="black"/>
<path d="M57.9889 509.361C62.654 478.851 97.4903 458.717 135.798 464.391C174.106 470.065 201.379 499.398 196.714 529.91C192.048 560.42 157.211 580.554 118.904 574.88C80.5963 569.206 53.3239 539.873 57.9889 509.361Z" fill="#FCDF2A"/>
<path d="M57.9889 509.361C62.654 478.851 97.4903 458.717 135.798 464.391C174.106 470.065 201.379 499.398 196.714 529.91C192.048 560.42 157.211 580.554 118.904 574.88C80.5963 569.206 53.3239 539.873 57.9889 509.361Z" stroke="#FCDF2A" stroke-width="6" stroke-miterlimit="10" stroke-linecap="round"/>
<path d="M77.7826 511.352C81.1259 489.486 106.092 475.057 133.546 479.123C160.999 483.189 180.545 504.212 177.202 526.077C173.858 547.944 148.892 562.374 121.438 558.306C93.9841 554.24 74.4393 533.218 77.7826 511.352Z" fill="#FCDF2A"/>
<path d="M77.7826 511.352C81.1259 489.486 106.092 475.057 133.546 479.123C160.999 483.189 180.545 504.212 177.202 526.077C173.858 547.944 148.892 562.374 121.438 558.306C93.9841 554.24 74.4393 533.218 77.7826 511.352Z" stroke="black" stroke-width="6" stroke-miterlimit="10" stroke-linecap="round"/>
<path d="M212.137 513.579L213.728 495.765C212.303 484.048 205.18 479.57 196.241 469.956C184.293 457.105 167.193 448.469 148.092 445.641C128.992 442.811 110.068 446.112 94.8053 454.933C83.7759 461.308 76.1516 461.522 71.2159 471.833L70.4703 475.261L66.5698 492.018C66.3334 493.103 66.1282 494.201 65.9587 495.309C63.3953 512.077 68.8983 528.748 81.4546 542.253C93.4028 555.106 110.503 563.74 129.603 566.57C148.703 569.399 167.628 566.099 182.89 557.278C198.929 548.009 209.173 533.668 211.737 516.901C211.906 515.792 212.038 514.685 212.137 513.579Z" fill="black"/>
<path d="M72.7239 474.655C77.389 444.144 112.225 424.01 150.532 429.684C188.84 435.358 216.114 464.691 211.449 495.203C206.783 525.713 171.947 545.847 133.64 540.173C95.332 534.499 68.0588 505.166 72.7239 474.655Z" fill="#FCDF2A"/>
<path d="M72.7239 474.655C77.389 444.144 112.225 424.01 150.532 429.684C188.84 435.358 216.114 464.691 211.449 495.203C206.783 525.713 171.947 545.847 133.64 540.173C95.332 534.499 68.0588 505.166 72.7239 474.655Z" stroke="#FCDF2A" stroke-width="6" stroke-miterlimit="10" stroke-linecap="round"/>
<path d="M92.5168 476.644C95.8601 454.778 120.827 440.349 148.28 444.415C175.734 448.482 195.279 469.504 191.935 491.37C188.592 513.236 163.626 527.666 136.173 523.599C108.718 519.532 89.1735 498.511 92.5168 476.644Z" fill="#FCDF2A"/>
<path d="M92.5168 476.644C95.8601 454.778 120.827 440.349 148.28 444.415C175.734 448.482 195.279 469.504 191.935 491.37C188.592 513.236 163.626 527.666 136.173 523.599C108.718 519.532 89.1735 498.511 92.5168 476.644Z" stroke="black" stroke-width="6" stroke-miterlimit="10" stroke-linecap="round"/>
<path d="M189.897 464.586L191.488 446.772C190.064 435.055 182.94 430.579 174.002 420.963C162.053 408.112 144.953 399.477 125.853 396.648C106.753 393.819 87.8285 397.118 72.5661 405.939C61.5367 412.314 53.9124 412.53 48.9767 422.84L48.2304 426.268L44.3299 443.025C44.0942 444.111 43.889 445.209 43.7195 446.316C41.1553 463.084 46.6584 479.756 59.2147 493.261C71.1636 506.113 88.2628 514.748 107.364 517.578C126.463 520.406 145.388 517.107 160.651 508.286C176.689 499.016 186.933 484.676 189.497 467.908C189.667 466.801 189.799 465.692 189.897 464.586Z" fill="black"/>
<path d="M50.4832 425.662C55.1483 395.15 89.9846 375.017 128.292 380.691C166.601 386.366 193.874 415.698 189.209 446.21C184.544 476.721 149.707 496.855 111.399 491.181C73.0913 485.507 45.8182 456.172 50.4832 425.662Z" fill="#FCDF2A"/>
<path d="M50.4832 425.662C55.1483 395.15 89.9846 375.017 128.292 380.691C166.601 386.366 193.874 415.698 189.209 446.21C184.544 476.721 149.707 496.855 111.399 491.181C73.0913 485.507 45.8182 456.172 50.4832 425.662Z" stroke="#FCDF2A" stroke-width="6" stroke-miterlimit="10" stroke-linecap="round"/>
<path d="M70.2783 427.652C73.6216 405.785 98.588 391.357 126.042 395.423C153.495 399.489 173.041 420.512 169.697 442.377C166.354 464.244 141.388 478.673 113.934 474.606C86.4798 470.54 66.935 449.518 70.2783 427.652Z" fill="#FCDF2A"/>
<path d="M70.2783 427.652C73.6216 405.785 98.588 391.357 126.042 395.423C153.495 399.489 173.041 420.512 169.697 442.377C166.354 464.244 141.388 478.673 113.934 474.606C86.4798 470.54 66.935 449.518 70.2783 427.652Z" stroke="black" stroke-width="6" stroke-miterlimit="10" stroke-linecap="round"/>
<path d="M331.499 11.0878L331.429 11.0326C331.453 11.0504 331.475 11.0729 331.498 11.0907L331.499 11.0878Z" fill="black"/>
<path d="M158.42 610.141L158.554 169.388C158.508 147.264 170.447 120.352 185.203 109.253L312.483 13.512C319.854 7.96816 326.539 7.41347 331.391 11.0041L320.015 2.35227C315.154 -1.33129 308.42 -0.809822 300.995 4.77667L173.711 100.514C158.957 111.614 147.019 138.524 147.062 160.651L146.93 601.404C146.953 612.38 149.928 620.11 154.727 623.746L166.217 632.481L166.219 632.475C161.42 628.839 158.443 621.117 158.42 610.141Z" fill="#42E8D3"/>
<path d="M317.796 16.7708L290.612 37.2166C290.331 37.4281 290.078 37.6973 289.863 38.0131L270.185 66.9306C269.969 67.2464 269.718 67.5156 269.436 67.7261L229.557 97.717C228.974 98.1551 228.296 98.3267 227.631 98.2044L214.101 95.7278C213.436 95.6064 212.759 95.778 212.177 96.2161L187.486 114.787C172.462 126.088 163.206 146.978 163.203 169.586L163.156 597.62L335.701 467.775L335.749 30.2857C335.75 18.2755 325.777 10.7671 317.796 16.7708Z" fill="#DCD9D9"/>
<path d="M163.156 597.62L163.154 617.187C163.152 627.656 171.845 634.198 178.802 628.965L212.471 603.635L290.961 544.605L311.749 528.965C326.568 517.816 335.697 497.209 335.7 474.906L335.701 467.777L163.156 597.62Z" fill="#DCD9D9"/>
<path d="M331.503 11.0914C331.478 11.0734 331.455 11.0506 331.43 11.0326C331.417 11.0231 331.405 11.0127 331.391 11.0032C326.539 7.41254 319.854 7.96722 312.483 13.511L185.203 109.252C170.447 120.351 158.508 147.263 158.554 169.388L158.42 610.141C158.443 621.118 161.42 628.839 166.219 632.475C171.079 636.16 177.808 635.651 185.234 630.064L312.514 534.326C327.269 523.224 339.208 496.282 339.163 474.187L339.296 33.4345C339.274 22.4464 336.298 14.7256 331.503 11.0914ZM335.702 467.776L335.701 474.906C335.698 497.208 326.568 517.815 311.749 528.964L290.962 544.605L212.472 603.635L178.803 628.965C171.846 634.198 163.153 627.655 163.155 617.187L163.157 597.62L163.203 169.587C163.206 146.978 172.462 126.089 187.486 114.788L212.176 96.217C212.759 95.779 213.437 95.6074 214.102 95.7288L227.632 98.2053C228.297 98.3267 228.975 98.156 229.557 97.718L269.436 67.7271C269.717 67.5166 269.97 67.2473 270.186 66.9306L289.863 38.014C290.079 37.6973 290.332 37.429 290.613 37.2176L317.796 16.7717C325.776 10.768 335.75 18.2755 335.75 30.2857L335.702 467.776Z" fill="black"/>
<path d="M267.104 63.723L240.585 83.673C239.125 84.7719 237.941 84.1196 237.941 82.2157C237.941 80.3118 239.125 77.8779 240.586 76.779L267.104 56.8291C268.566 55.7292 269.748 56.3834 269.749 58.2883C269.748 60.1902 268.564 62.6241 267.104 63.723Z" fill="#DCD9D9"/>
<path d="M153.387 241.058C153.906 241.829 154.348 242.739 154.67 243.69C155.036 244.768 155.248 245.902 155.246 246.942L155.243 283.579C155.24 284.952 154.871 285.913 154.278 286.365L151.874 288.182C152.469 287.733 152.838 286.77 152.841 285.398L152.844 248.762C152.845 247.721 152.634 246.588 152.268 245.509C151.946 244.558 151.504 243.648 150.984 242.878C150.547 242.227 150.054 241.676 149.532 241.284L148.618 240.595C147.699 239.904 146.862 239.842 146.257 240.301L148.66 238.484C149.266 238.024 150.102 238.087 151.022 238.778L151.934 239.465C152.457 239.859 152.95 240.409 153.387 241.058Z" fill="#DCD9D9"/>
<path d="M152.844 248.76L152.84 285.396C152.833 288.161 151.351 289.259 149.507 287.871L148.594 287.184C146.768 285.809 145.275 282.471 145.282 279.706L145.286 243.07C145.292 240.336 146.792 239.221 148.619 240.595L149.532 241.282C151.378 242.672 152.849 246.025 152.844 248.76Z" fill="black"/>
<path d="M230.027 83.2824C228.233 84.6326 226.784 87.9046 226.79 90.5907C226.795 93.2778 228.253 94.3624 230.047 93.0132C231.841 91.664 233.292 88.391 233.285 85.704C233.28 83.0169 231.821 81.9332 230.027 83.2824Z" fill="#DCD9D9"/>
<path d="M266.42 537.135C262.877 538.067 259.085 542.43 257.949 546.877C256.811 551.323 258.759 554.175 262.302 553.244C265.843 552.313 269.639 547.95 270.776 543.503C271.913 539.054 269.962 536.204 266.42 537.135Z" fill="#DCD9D9"/>
<path d="M266.42 537.135C262.877 538.067 259.085 542.43 257.949 546.877C256.811 551.323 258.759 554.175 262.302 553.244C265.843 552.313 269.639 547.95 270.776 543.503C271.913 539.054 269.962 536.204 266.42 537.135Z" stroke="black" stroke-width="5.669" stroke-miterlimit="10" stroke-linecap="round"/>
<path d="M239.191 170.878C239.661 190.846 228.552 212.084 214.379 218.312C200.206 224.54 188.335 213.402 187.866 193.434C187.396 173.466 198.505 152.229 212.678 146.001C226.851 139.772 238.722 150.91 239.191 170.878Z" fill="#DCD9D9"/>
<path d="M239.191 170.878C239.661 190.846 228.552 212.084 214.379 218.312C200.206 224.54 188.335 213.402 187.866 193.434C187.396 173.466 198.505 152.229 212.678 146.001C226.851 139.772 238.722 150.91 239.191 170.878Z" stroke="black" stroke-width="6" stroke-miterlimit="10" stroke-linecap="round"/>
<path d="M226.805 168.442C227.051 178.915 221.225 190.054 213.79 193.322C206.357 196.588 200.131 190.746 199.885 180.273C199.638 169.799 205.465 158.66 212.898 155.394C220.333 152.126 226.558 157.969 226.805 168.442Z" fill="black"/>
<path d="M195.926 215.641C195.926 215.641 206.781 181.719 214.622 180.064C222.463 178.408 232.657 199.012 231.538 201.109C230.418 203.205 215.111 229.915 195.926 215.641Z" fill="black"/>
<path d="M188.794 256.872L249.558 217.554" stroke="black" stroke-width="6" stroke-linecap="round" stroke-linejoin="round"/>
<path d="M230.038 325.739L290.806 288.188" stroke="black" stroke-width="6" stroke-linecap="round" stroke-linejoin="round"/>
<path d="M230.038 342.909L267.824 319.494" stroke="black" stroke-width="6" stroke-linecap="round" stroke-linejoin="round"/>
<path d="M230.038 360.193L305.492 312.479" stroke="black" stroke-width="6" stroke-linecap="round" stroke-linejoin="round"/>
<path d="M190.054 275.637L216.643 258.007" stroke="black" stroke-width="6" stroke-linecap="round" stroke-linejoin="round"/>
<path d="M194.454 442.561L241.414 411.656" stroke="black" stroke-width="6" stroke-linecap="round" stroke-linejoin="round"/>
<path d="M190.054 297.361L236.537 264.279" stroke="black" stroke-width="6" stroke-linecap="round" stroke-linejoin="round"/>
<path d="M194.144 423.576L261.696 379.131" stroke="black" stroke-width="6" stroke-linecap="round" stroke-linejoin="round"/>
<path d="M202.224 327.917C193.477 331.072 186.3 342.676 186.216 353.799C186.188 357.561 186.979 360.928 188.515 363.524L200.722 384.856C200.931 385.217 201.246 385.371 201.615 385.306C201.673 385.296 201.732 385.281 201.791 385.261C201.793 385.261 201.795 385.26 201.795 385.26C201.82 385.251 201.845 385.239 201.87 385.229C201.905 385.214 201.94 385.201 201.976 385.183C202.003 385.17 202.03 385.153 202.057 385.137C202.089 385.118 202.123 385.098 202.156 385.076C202.183 385.057 202.209 385.037 202.236 385.016C202.268 384.992 202.3 384.967 202.331 384.939C202.356 384.916 202.382 384.893 202.407 384.868C202.438 384.838 202.469 384.806 202.5 384.773C202.523 384.746 202.546 384.721 202.569 384.693C202.599 384.656 202.629 384.616 202.658 384.576C202.679 384.548 202.699 384.52 202.719 384.491C202.75 384.445 202.778 384.394 202.807 384.344C202.822 384.318 202.839 384.292 202.853 384.264C202.893 384.187 202.93 384.106 202.964 384.024C202.965 384.02 202.967 384.017 202.969 384.013L215.603 353.483C216.637 350.991 217.334 348.382 217.679 345.815C217.836 344.649 217.919 343.491 217.927 342.356C218.012 331.235 210.971 324.762 202.224 327.917ZM194.144 350.938C194.186 345.393 197.787 339.571 202.148 337.998C206.509 336.424 210.041 339.673 210 345.217C209.958 350.694 206.487 356.537 201.996 358.157C197.556 359.76 194.102 356.449 194.144 350.938Z" fill="#DCD9D9"/>
<path d="M202.224 327.917C193.477 331.072 186.3 342.676 186.216 353.799C186.188 357.561 186.979 360.928 188.515 363.524L200.722 384.856C200.931 385.217 201.246 385.371 201.615 385.306C201.673 385.296 201.732 385.281 201.791 385.261C201.793 385.261 201.795 385.26 201.795 385.26C201.82 385.251 201.845 385.239 201.87 385.229C201.905 385.214 201.94 385.201 201.976 385.183C202.003 385.17 202.03 385.153 202.057 385.137C202.089 385.118 202.123 385.098 202.156 385.076C202.183 385.057 202.209 385.037 202.236 385.016C202.268 384.992 202.3 384.967 202.331 384.939C202.356 384.916 202.382 384.893 202.407 384.868C202.438 384.838 202.469 384.806 202.5 384.773C202.523 384.746 202.546 384.721 202.569 384.693C202.599 384.656 202.629 384.616 202.658 384.576C202.679 384.548 202.699 384.52 202.719 384.491C202.75 384.445 202.778 384.394 202.807 384.344C202.822 384.318 202.839 384.292 202.853 384.264C202.893 384.187 202.93 384.106 202.964 384.024C202.965 384.02 202.967 384.017 202.969 384.013L215.603 353.483C216.637 350.991 217.334 348.382 217.679 345.815C217.836 344.649 217.919 343.491 217.927 342.356C218.012 331.235 210.971 324.762 202.224 327.917ZM194.144 350.938C194.186 345.393 197.787 339.571 202.148 337.998C206.509 336.424 210.041 339.673 210 345.217C209.958 350.694 206.487 356.537 201.996 358.157C197.556 359.76 194.102 356.449 194.144 350.938Z" stroke="black" stroke-width="6" stroke-linecap="round" stroke-linejoin="round"/>
<path d="M316.935 441.876L208.85 515.318C202.892 519.366 197.676 513.815 197.199 502.919C196.723 492.023 201.167 479.907 207.126 475.858L315.21 402.417C321.169 398.368 326.385 403.919 326.861 414.816C327.337 425.712 322.894 437.828 316.935 441.876Z" fill="#42E8D3"/>
<path d="M297.918 445.692C297.918 445.692 302.679 424.784 326.376 438.662C350.072 452.539 346.38 471.749 362.401 468.57C378.422 465.391 386.322 437.627 393.752 449.099C401.182 460.572 378.624 492.228 376.817 493.589C375.01 494.948 442.111 556.537 436.222 604.028C430.333 651.518 317.988 649.162 294.673 641.506C271.358 633.849 295.677 518.76 303.851 497.599C312.027 476.436 293.673 471.163 297.918 445.692Z" fill="#FCDF2A"/>
<path d="M297.918 445.692C297.918 445.692 302.679 424.784 326.376 438.662C350.072 452.539 346.38 471.749 362.401 468.57C378.422 465.391 386.322 437.627 393.752 449.099C401.182 460.572 378.624 492.228 376.817 493.589C375.01 494.948 442.111 556.537 436.222 604.028C430.333 651.518 317.988 649.162 294.673 641.506C271.358 633.849 295.677 518.76 303.851 497.599C312.027 476.436 293.673 471.163 297.918 445.692Z" stroke="black" stroke-width="6" stroke-linecap="round" stroke-linejoin="round"/>
<path d="M303.852 490.175C303.852 490.175 349.836 506.319 376.817 493.589" stroke="black" stroke-width="5.669" stroke-miterlimit="10" stroke-linecap="round"/>
<path d="M301.62 498.938C301.62 498.938 350.82 513.333 377.304 498.938" stroke="black" stroke-width="5.669" stroke-miterlimit="10" stroke-linecap="round"/>
<path d="M358.619 497.795C358.619 497.795 343.464 474.146 355.485 476.726C367.505 479.307 358.619 497.795 358.619 497.795Z" stroke="black" stroke-width="5.669" stroke-linecap="round" stroke-linejoin="round"/>
<path d="M361.773 496.607C361.773 496.607 364.718 466.036 371.463 479.257C378.21 492.479 361.773 496.607 361.773 496.607Z" stroke="black" stroke-width="5.669" stroke-linecap="round" stroke-linejoin="round"/>
<path d="M366.684 502.137C366.684 505.249 364.747 507.773 362.359 507.773C359.97 507.773 358.035 505.249 358.035 502.137C358.035 499.025 359.97 496.502 362.359 496.502C364.747 496.502 366.684 499.025 366.684 502.137Z" fill="black"/>
<path d="M382.545 520.697C376.247 509.631 362.359 502.138 362.359 502.138C362.359 502.138 365.839 526.765 349.952 534.26" stroke="black" stroke-width="5.669" stroke-linecap="round" stroke-linejoin="round"/>
<path d="M346.182 581.329C344.962 579.373 343.233 577.735 340.992 576.411C338.752 575.088 335.895 574.028 332.425 573.23C329.501 572.564 327.202 571.984 325.53 571.491C323.859 570.999 322.514 570.314 321.497 569.432C320.48 568.55 319.935 567.357 319.859 565.848C319.776 564.201 320.367 562.769 321.629 561.553C322.891 560.336 324.519 559.642 326.51 559.473C328.446 559.308 330.001 559.598 331.172 560.343C332.344 561.089 333.382 562.129 334.286 563.46C335.393 565.056 336.364 566.242 337.2 567.014C338.035 567.789 339.018 568.127 340.148 568.033C341.708 567.899 342.886 567.27 343.681 566.146C344.474 565.022 344.832 563.638 344.748 561.99C344.673 560.483 344.199 558.972 343.326 557.462C342.454 555.951 341.225 554.613 339.641 553.444C338.055 552.276 336.107 551.403 333.796 550.825C332.792 550.573 331.729 550.416 330.623 550.32L330.377 545.398C330.238 542.622 328.4 540.519 326.271 540.699C324.142 540.881 322.528 543.277 322.667 546.052L322.905 550.81C320.618 551.329 318.6 552.186 316.865 553.4C314.372 555.144 312.531 557.353 311.341 560.023C310.152 562.696 309.629 565.468 309.773 568.344C309.934 571.569 310.782 574.226 312.319 576.314C313.855 578.401 315.847 580.017 318.295 581.165C320.743 582.313 323.895 583.339 327.749 584.243C331.164 585.009 333.633 585.909 335.158 586.943C336.681 587.974 337.507 589.752 337.634 592.276C337.716 593.924 337.083 595.449 335.735 596.849C334.386 598.249 332.609 599.043 330.404 599.23C327.687 599.46 325.51 599.011 323.873 597.882C322.236 596.754 320.789 594.959 319.531 592.494C318.9 591.211 318.255 590.228 317.6 589.543C316.944 588.86 316.039 588.568 314.882 588.665C313.563 588.777 312.502 589.431 311.698 590.626C310.892 591.822 310.531 593.206 310.61 594.785C310.729 597.169 311.52 599.487 312.984 601.74C314.447 603.992 316.63 605.788 319.533 607.125C321.404 607.987 323.495 608.495 325.8 608.662L325.996 612.562C326.134 615.338 327.973 617.442 330.102 617.261C332.231 617.079 333.844 614.683 333.706 611.908L333.515 608.089C336.073 607.557 338.328 606.714 340.262 605.547C343.081 603.847 345.16 601.522 346.499 598.573C347.836 595.627 348.407 592.172 348.208 588.209C348.077 585.579 347.401 583.286 346.182 581.329Z" fill="black"/>
<path d="M453.264 319.425L378.503 331.132C372.706 332.04 367.439 326.652 366.74 319.098L362.253 270.559C361.554 263.005 365.688 256.145 371.486 255.237L446.247 243.528C452.045 242.62 457.311 248.008 458.009 255.563L462.497 304.102C463.195 311.657 459.062 318.517 453.264 319.425Z" fill="#42E8D3"/>
<path d="M450.095 280.285C449.082 269.337 441.451 261.528 433.049 262.844C424.648 264.16 418.657 274.102 419.669 285.049C420.681 295.998 428.313 303.807 436.714 302.491C445.116 301.175 451.107 291.233 450.095 280.285Z" fill="#DCD9D9"/>
<path d="M450.095 280.285C449.082 269.337 441.451 261.528 433.049 262.844C424.648 264.16 418.657 274.102 419.669 285.049C420.681 295.998 428.313 303.807 436.714 302.491C445.116 301.175 451.107 291.233 450.095 280.285Z" stroke="black" stroke-width="6" stroke-miterlimit="10" stroke-linecap="round"/>
<path d="M419.671 285.047L450.093 280.285L419.671 285.047Z" fill="#DCD9D9"/>
<path d="M419.671 285.047L450.093 280.285" stroke="black" stroke-width="6" stroke-miterlimit="10" stroke-linecap="round"/>
<path d="M433.049 262.842C433.049 262.842 423.275 285.075 436.715 302.495" stroke="black" stroke-width="6" stroke-miterlimit="10" stroke-linecap="round"/>
<path d="M433.048 262.841C433.048 262.841 446.595 281.422 436.714 302.495" stroke="black" stroke-width="6" stroke-miterlimit="10" stroke-linecap="round"/>
<path d="M376.818 282.244L394.031 279.547C394.031 279.547 399.588 278.147 398.816 269.802L380.002 272.75C380.002 272.75 375.922 276.359 376.818 282.244Z" fill="#DCD9D9"/>
<path d="M376.818 282.244L394.031 279.547C394.031 279.547 399.588 278.147 398.816 269.802L380.002 272.75C380.002 272.75 375.922 276.359 376.818 282.244Z" stroke="black" stroke-width="6" stroke-miterlimit="10" stroke-linecap="round"/>
<path d="M377.748 296.128L390.104 294.194" stroke="black" stroke-width="6" stroke-miterlimit="10" stroke-linecap="round"/>
<path d="M379.025 309.951L410.395 305.039" stroke="black" stroke-width="6" stroke-miterlimit="10" stroke-linecap="round"/>
<path d="M423.401 170.661L326.866 249.99L311.163 217.533L407.697 138.204L423.401 170.661Z" fill="#DCD9D9"/>
<path d="M423.401 170.661L326.866 249.99L311.163 217.533L407.697 138.204L423.401 170.661Z" stroke="black" stroke-width="6" stroke-linecap="round" stroke-linejoin="round"/>
<path d="M446.932 151.315L417.235 175.721L401.532 143.264L431.229 118.859L446.932 151.315Z" fill="black"/>
<path d="M446.932 151.315L417.235 175.721L401.532 143.264L431.229 118.859L446.932 151.315Z" stroke="black" stroke-width="6" stroke-linecap="round" stroke-linejoin="round"/>
<path d="M311.163 217.539L295.734 252.898L326.866 249.995L311.163 217.539Z" fill="#42E8D3"/>
<path d="M311.163 217.539L295.734 252.898L326.866 249.995L311.163 217.539Z" stroke="black" stroke-width="6" stroke-linecap="round" stroke-linejoin="round"/>
</svg>
